<!--?xml version="1.0" standalone="no"?-->
              <svg id="sw-js-blob-svg" viewBox="0 0 100 100" xmlns="http://www.w3.org/2000/svg" version="1.1">
                    <defs> 
                        <linearGradient id="sw-gradient" x1="0" x2="1" y1="1" y2="0">
                            <stop id="stop1" stop-color="rgba(248, 117, 55, 1)" offset="0%"></stop>
                            <stop id="stop2" stop-color="rgba(251, 224.416, 31, 1)" offset="100%"></stop>
                        </linearGradient>
                    </defs>
                <path fill="url(#sw-gradient)" d="M19,-32.5C25.2,-29.3,31.2,-25.4,35.8,-19.8C40.5,-14.3,43.9,-7.1,44.5,0.3C45,7.8,42.7,15.5,37.9,21C33.2,26.4,26,29.5,19.3,32C12.6,34.5,6.3,36.4,-0.2,36.7C-6.6,37,-13.3,35.7,-20.4,33.4C-27.5,31.2,-35.1,27.9,-39.7,22.2C-44.4,16.4,-46.2,8.2,-45.6,0.4C-44.9,-7.5,-41.9,-15,-37.8,-21.7C-33.7,-28.4,-28.5,-34.4,-22,-37.5C-15.5,-40.6,-7.8,-40.7,-0.7,-39.5C6.4,-38.3,12.8,-35.8,19,-32.5Z" width="100%" height="100%" transform="translate(50 50)" stroke-width="0" style="transition: all 0.3s ease 0s;"></path>
              </svg>